<?xml version="1.0"?>
<svg xmlns="http://www.w3.org/2000/svg" id="outline" viewBox="0 0 512 512" width="512px" height="512px" class=""><g><path d="M440,308.68555l-11.23938-11.23926a202.75342,202.75342,0,0,0,13.03723-21.77344,7.99862,7.99862,0,0,0,.84277-4.56347l-2.69042-24.001a7.99884,7.99884,0,0,0-4.37256-6.26367L424.051,235.08154A167.37719,167.37719,0,0,0,432,184c0-92.63574-75.36426-168-168-168a167.04089,167.04089,0,0,0-95.09912,29.58691L157.65674,34.34277a8.00089,8.00089,0,0,0-8.31983-1.88672l-24.00146,8.47266A8.00775,8.00775,0,0,0,122.332,42.8252a202.41456,202.41456,0,0,0-21.49609,25.45068l-9.7417-6.49463a15.99868,15.99868,0,0,0-22.188,4.4375l-7.125,10.6875a16.0179,16.0179,0,0,0,4.4375,22.1875l12.81885,8.5459A199.71294,199.71294,0,0,0,64,184c0,102.1582,76.99475,186.66016,176,198.55469V416H208a7.99983,7.99983,0,0,0-4.4375,1.34375l-24,16A7.99943,7.99943,0,0,0,176,440v8H136a8.00008,8.00008,0,0,0-8,8v32a8.00008,8.00008,0,0,0,8,8H392a8.00008,8.00008,0,0,0,8-8V456a8.00008,8.00008,0,0,0-8-8H352v-8a7.99943,7.99943,0,0,0-3.5625-6.65625l-24-16A7.99983,7.99983,0,0,0,320,416H288V382.57324a199.074,199.074,0,0,0,107.50879-47.751l9.17676,9.17675a15.99888,15.99888,0,0,0,22.62793.001l12.6875-12.68652A16.02163,16.02163,0,0,0,440,308.68555ZM416,184a151.2846,151.2846,0,0,1-34.24475,96H365.3335a8.04886,8.04886,0,0,1-4.8003-1.60059l-22.605-16.95312a7.96127,7.96127,0,0,1-3.09082-5.085l-5.93994-35.63672a23.95758,23.95758,0,0,0-8.68066-14.7959l-29.21436-23.37207A7.96086,7.96086,0,0,1,288,176.30957V160.5625a7.98486,7.98486,0,0,1,3.5625-6.65625l12.8457-8.56348A7.97509,7.97509,0,0,1,308.84424,144h6.66357A23.96585,23.96585,0,0,0,338.791,125.82129l4.54492-18.17969a7.98433,7.98433,0,0,1,.605-1.63476l10.792-21.584A7.95642,7.95642,0,0,1,361.88867,80h12.8534A151.44118,151.44118,0,0,1,416,184ZM357.67993,64.37939A23.838,23.838,0,0,0,340.42236,77.2666l-10.792,21.584a24.0084,24.0084,0,0,0-1.81738,4.91308l-4.54444,18.17676A7.98887,7.98887,0,0,1,315.50781,128h-6.66357a23.91888,23.91888,0,0,0-13.3125,4.03125l-12.84473,8.5625A23.95294,23.95294,0,0,0,272,160.5625v15.74707a23.8826,23.8826,0,0,0,9.00732,18.74121l29.21582,23.37305a7.98173,7.98173,0,0,1,2.89209,4.93066l5.94,35.63672a23.8958,23.8958,0,0,0,9.27343,15.25586l22.605,16.95313A24.15378,24.15378,0,0,0,365.3335,296h1.31543A151.83007,151.83007,0,0,1,240,334.09863V291.293a5.97891,5.97891,0,0,1,.62793-2.66016l13.05469-26.10937A22.06221,22.06221,0,0,0,256,252.707V221.94727A21.97238,21.97238,0,0,0,234.05273,200H200.62012a5.915,5.915,0,0,1-5.31983-3.28809l-8.56738-17.13476a8.0359,8.0359,0,0,1,0-7.1543l10.94971-21.89941A22.06221,22.06221,0,0,0,200,140.707v-6.75976A5.954,5.954,0,0,1,205.94727,128h7.78955a5.91861,5.91861,0,0,1,1.88037.30566l16.37207,5.45606a21.79584,21.79584,0,0,0,16.75586-1.19043L272.63428,120.627a22.0572,22.0572,0,0,0,7.74121-6.46093l13.17822-17.57129A21.94644,21.94644,0,0,0,288.16943,65.165l-8.21826-5.47852A21.874,21.874,0,0,0,267.77686,56H246.62744a7.94677,7.94677,0,0,1-5.65723-2.34375L224.52368,37.20972A151.83474,151.83474,0,0,1,357.67993,64.37939ZM112.21021,176h7.2268a7.9857,7.9857,0,0,1,6.65674,3.5625l23.82764,35.74121a5.95865,5.95865,0,0,1,.8208,4.74121l-5.252,21.00879a21.96206,21.96206,0,0,0,1.66211,15.13965l11.10889,22.21777A21.80577,21.80577,0,0,0,170.95068,289.417l11.90479,3.96778a5.97181,5.97181,0,0,1,3.76025,3.76171l7.21949,21.65821A152.14659,152.14659,0,0,1,112,184Q112,179.97461,112.21021,176ZM213.56152,327.38672l-11.76709-35.29981a22.04847,22.04847,0,0,0-13.88037-13.88183l-11.90332-3.9668a5.91159,5.91159,0,0,1-3.439-2.9834l-11.10889-22.21777a5.9518,5.9518,0,0,1-.45019-4.10254l5.25195-21.00879a21.98951,21.98951,0,0,0-3.03076-17.49707L139.40625,170.6875A23.95241,23.95241,0,0,0,119.437,160h-5.53576a152.478,152.478,0,0,1,93.6571-117.12769L229.65674,64.9707A23.84254,23.84254,0,0,0,246.62744,72h21.14942a5.935,5.935,0,0,1,3.2998.999l8.21826,5.47852a5.94845,5.94845,0,0,1,1.459,8.51758l-13.17823,17.57129a5.985,5.985,0,0,1-2.09814,1.751l-23.8877,11.94336a5.913,5.913,0,0,1-4.54052.32227L220.67969,113.127A21.889,21.889,0,0,0,213.73682,112h-7.78955A21.97238,21.97238,0,0,0,184,133.94727V140.707a5.97891,5.97891,0,0,1-.62793,2.66016L172.42236,165.2666a24.11606,24.11606,0,0,0,0,21.4668l8.56739,17.13476A21.82746,21.82746,0,0,0,200.62012,216h33.43261A5.954,5.954,0,0,1,240,221.94727V252.707a5.97891,5.97891,0,0,1-.62793,2.66016l-13.05469,26.10937A22.06221,22.06221,0,0,0,224,291.293v39.35547Q218.70166,329.20116,213.56152,327.38672ZM75.09375,85.78125l7.125-10.6875,9.85571,6.57056Q88.763,87.20618,85.83655,92.94312ZM80,184A182.79421,182.79421,0,0,1,132.398,55.40332l17.51074-6.18066,6.151,6.15088A167.70128,167.70128,0,0,0,96,184c0,92.63574,75.36426,168,168,168,69.15918,0,128.68408-42.00977,154.41687-101.84766l6.11731,3.0586,1.93311,17.24511A183.47072,183.47072,0,0,1,264,368C162.542,368,80,285.458,80,184ZM384,480H144V464H384Zm-48-35.71875V448H192v-3.71875L210.42236,432H317.57764ZM272,416H256V383.82617c2.65527.105,5.31958.17383,8,.17383q4.01459,0,8-.16309Zm144-83.31445-8.87207-8.87159q6.25086-6.41528,11.95325-13.41894L428.68652,320Z" data-original="#000000" class="active-path" data-old_color="#000000" fill="#EE5401"/></g> </svg>
