<?xml version="1.0"?>
<svg xmlns="http://www.w3.org/2000/svg" height="512px" version="1.1" viewBox="0 -11 965.00174 965" width="512px"><g><g id="surface1">
<path d="M 482.488281 4.007812 C 387.886719 4.121094 311.226562 80.777344 311.121094 175.375 C 311.121094 265.519531 463.503906 471.933594 470.03125 480.738281 C 472.96875 484.699219 477.605469 487.039062 482.53125 487.039062 C 487.464844 487.039062 492.105469 484.699219 495.054688 480.738281 C 501.484375 471.933594 653.863281 265.519531 653.863281 175.375 C 653.753906 80.777344 577.09375 4.121094 482.488281 4.007812 Z M 482.488281 444.910156 C 434.191406 377.210938 342.273438 235.984375 342.273438 175.375 C 342.273438 97.945312 405.050781 35.167969 482.488281 35.167969 C 559.933594 35.167969 622.703125 97.945312 622.703125 175.375 C 622.703125 235.9375 530.789062 377.175781 482.488281 444.910156 Z M 482.488281 444.910156 " data-original="#000000" class="active-path" data-old_color="#000000" fill="#F45804"/>
<path d="M 482.488281 81.90625 C 430.867188 81.90625 389.015625 123.757812 389.015625 175.375 C 389.015625 227.007812 430.867188 268.855469 482.488281 268.855469 C 534.121094 268.855469 575.96875 227.007812 575.96875 175.375 C 575.914062 123.78125 534.09375 81.953125 482.488281 81.90625 Z M 482.488281 237.699219 C 448.078125 237.699219 420.175781 209.804688 420.175781 175.375 C 420.175781 140.964844 448.078125 113.0625 482.488281 113.0625 C 516.90625 113.0625 544.804688 140.964844 544.804688 175.375 C 544.804688 209.804688 516.90625 237.699219 482.488281 237.699219 Z M 482.488281 237.699219 " data-original="#000000" class="active-path" data-old_color="#000000" fill="#F45804"/>
<path d="M 685.492188 8.042969 L 715.59375 0.015625 L 965 934.75 L 934.882812 942.777344 Z M 685.492188 8.042969 " data-original="#000000" class="active-path" data-old_color="#000000" fill="#F45804"/>
<path d="M 0 934.742188 L 249.394531 0 L 279.5 8.039062 L 30.105469 942.769531 Z M 0 934.742188 " data-original="#000000" class="active-path" data-old_color="#000000" fill="#F45804"/>
<path d="M 466.914062 845.289062 L 498.070312 845.289062 L 498.070312 938.769531 L 466.914062 938.769531 Z M 466.914062 845.289062 " data-original="#000000" class="active-path" data-old_color="#000000" fill="#F45804"/>
<path d="M 466.914062 720.660156 L 498.070312 720.660156 L 498.070312 814.140625 L 466.914062 814.140625 Z M 466.914062 720.660156 " data-original="#000000" class="active-path" data-old_color="#000000" fill="#F45804"/>
<path d="M 466.914062 596.023438 L 498.070312 596.023438 L 498.070312 689.5 L 466.914062 689.5 Z M 466.914062 596.023438 " data-original="#000000" class="active-path" data-old_color="#000000" fill="#F45804"/>
<path d="M 451.328125 502.550781 L 513.648438 502.550781 L 513.648438 533.703125 L 451.328125 533.703125 Z M 451.328125 502.550781 " data-original="#000000" class="active-path" data-old_color="#000000" fill="#F45804"/>
<path d="M 529.230469 502.550781 L 560.390625 502.550781 L 560.390625 533.703125 L 529.230469 533.703125 Z M 529.230469 502.550781 " data-original="#000000" class="active-path" data-old_color="#000000" fill="#F45804"/>
<path d="M 404.589844 502.550781 L 435.75 502.550781 L 435.75 533.703125 L 404.589844 533.703125 Z M 404.589844 502.550781 " data-original="#000000" class="active-path" data-old_color="#000000" fill="#F45804"/>
</g></g> </svg>
