<?xml version="1.0"?>
<svg xmlns="http://www.w3.org/2000/svg" xmlns:xlink="http://www.w3.org/1999/xlink" version="1.1" id="Capa_1" x="0px" y="0px" viewBox="0 0 511.998 511.998" style="enable-background:new 0 0 511.998 511.998;" xml:space="preserve" width="512px" height="512px"><g><g>
	<g>
		<path d="M511.994,316.771c0-27.729-19.665-52.07-46.757-57.878l-27.604-5.917c-4.043-0.862-8.03,1.709-8.897,5.757    c-0.867,4.046,1.709,8.029,5.757,8.897l11.108,2.381v3.81c0,12.724-9.083,23.579-21.595,25.809l-29.922,5.333    c-18.207,3.245-31.783,18.1-33.709,36.147H231.256c-0.039,0-0.077,0-0.116,0.001c-3.858,0.069-7.006-0.818-8.621-2.407    c-0.603-0.594-1.407-1.659-1.407-4.029c0-11.366-7.661-20.97-18.085-23.931c-5.542-41.854-26.534-80.446-58.558-107.824    c6.645-3.953,12.856-8.872,18.399-14.785c0.028-0.029,0.057-0.056,0.084-0.086c0.009-0.009,0.018-0.018,0.027-0.028l9.067-9.71    c29.151,23.685,77.946,61.319,113.418,78.36c7.806,3.751,15.118,7.081,21.732,9.902c21.667,9.236,47.669,3.115,63.067-14.651    c9.706,3.114,19.545,5.847,29.492,8.183c4.028,0.949,8.06-1.553,9.008-5.582c2.071-8.816-8.049-9.304-13.858-10.759    c-6.995-1.751-13.875-3.982-20.701-6.299c-9.054-3.074-18.174-7.793-27.437-10.089c-47.734-15.116-158.5-106.323-158.5-106.323    c-16.838-12.633-34.311,6.396-39.771,21.543c-4.655,12.912-2.004,25.081,0.815,37.94c-26.265,25.196-68.066,25.881-95.131,0.976    l-6.393-7.418c-4.542-5.27-11.58-7.592-18.362-6.051c-15.684,3.556-17.317,25.72-20.8,38.532    c-2.892,10.639-17.474,60.105-0.66,60.105c9.513,0,7.459-12.423,7.896-18.526c0.713-9.96,2.387-19.849,5.006-29.487l9.055-33.307    c0.539-1.985,2.149-2.552,2.816-2.702c0.666-0.15,2.358-0.334,3.698,1.22l6.67,7.739c0.18,0.208,0.371,0.407,0.571,0.593    c23.764,22.116,57.015,27.857,85.728,17.756c31.445,24.546,52.397,60.494,58.366,99.829H15.456v-15.105    c0-10.559-13.824-8.818-14.986,0.575c-0.77,6.225,0,13.064,0,19.332c0,9.767,0,19.533,0,29.3c0,28.1,22.844,50.962,50.923,50.962    c34.697,0,69.392,0,104.089,0c20.431,0,40.862,0,61.293,0c4.477,0,9.235,0.471,13.693,0c10.727-1.134,10.335-13.918-0.215-14.986    c-19.402-1.965-39.927,0-59.448,0c-3.607-22.986-23.53-40.625-47.495-40.625H15.456v-14.467c53.036,0,106.071,0,159.107,0    c7.226,0,14.453,0,21.679,0c0.003,0,0.006,0,0.009,0c5.445,0,9.876,4.438,9.876,9.892c0,5.835,2.033,10.92,5.878,14.707    c4.509,4.44,11.37,6.813,19.304,6.714h224.737c0.039,0,0.077,0,0.115-0.001c16.312-0.25,30.848-10.174,37.034-25.28    c0.591-1.444,1.754-2.559,3.211-3.087l-0.664,11.761c-10.666,24.728-34.938,39.953-61.592,40.386c-9.065,0.148-18.143,0-27.209,0    c-36.626,0-73.251,0-109.877,0c-10.001,0-20.001,0-30.003,0c-4.138,0-7.493,3.355-7.493,7.493c0,9.666,13.204,7.493,19.427,7.493    c13.015,0,26.03,0,39.045,0c31.276,0,62.551,0,93.827,0c7.494,0,14.987,0,22.481,0c33.343,0,63.07-19.946,75.734-50.815    c0.316-0.771,0.502-1.59,0.549-2.421l1.352-23.912c0.003-0.059-0.003-0.116-0.001-0.175    C511.999,317.284,512.003,317.028,511.994,316.771z M222.345,165.362l2.025,1.52l-8.4,0.401c-4.134,0.198-7.325,3.709-7.127,7.842    c0.195,4.084,3.778,7.307,7.842,7.127l20.322-0.97l1.626,17.211c0.381,4.025,4.144,7.131,8.164,6.755    c4.12-0.39,7.144-4.044,6.755-8.164l-0.628-6.65c9.217,7.098,18.716,13.761,28.491,19.964l-4.168,0.808    c-4.062,0.788-6.718,4.72-5.929,8.783c0.77,3.972,4.81,6.703,8.783,5.93l15.362-2.978l3.255,16.692    c0.774,3.972,4.817,6.697,8.789,5.921c4.061-0.791,6.713-4.727,5.92-8.789l-1.762-9.041c12.558,6.442,25.512,12.18,38.816,17.244    c0.872,0.333,1.741,0.671,2.616,0.998c0.473,0.177,0.942,0.367,1.42,0.542c-11.314,9.525-27.398,12.271-41.441,6.285    c-6.409-2.732-13.514-5.97-21.119-9.624c-34.43-16.541-83.952-55.025-109.266-75.521    C194.157,158.879,210.006,158.005,222.345,165.362z M173.103,133.103c1.802-1.408,4.339-1.433,6.169-0.059l16.256,12.197    c-10.206,1.826-19.535,6.89-26.817,14.687l-2.833,3.033c-0.003,0.003-0.005,0.006-0.008,0.009l-4.105,4.396l-0.383-1.743    C158.725,153.5,163.326,140.734,173.103,133.103z M123.311,354.237c15.675,0,28.84,10.967,32.241,25.639H51.393    c-15.605,0-28.914-10.013-33.866-23.956L123.311,354.237z M492.084,313.372c-5.801,1.842-10.45,6.13-12.758,11.765    c-3.902,9.529-13.061,15.794-23.341,15.974h-80.489c1.822-10.749,10.18-19.427,21.214-21.393l29.922-5.333    c19.673-3.507,33.951-20.566,33.951-40.563v-0.597l1.511,0.324c18.625,3.992,32.538,19.72,34.63,38.351L492.084,313.372z" data-original="#000000" class="active-path" data-old_color="#000000" fill="#EE4105"/>
	</g>
</g></g> </svg>
